<svg width="29" height="29" viewBox="0 0 29 29" fill="none" xmlns="http://www.w3.org/2000/svg">
<path d="M20.4941 14.7646C20.4941 17.9563 17.8979 20.5438 14.6953 20.5438C11.4927 20.5438 8.89648 17.9563 8.89648 14.7646C8.89648 11.5728 11.4927 8.98535 14.6953 8.98535C17.8979 8.98535 20.4941 11.5728 20.4941 14.7646Z" stroke="#D0D0D0" stroke-width="1.5"/>
<path d="M14.6953 3.20605C14.2577 3.59133 13.6451 4.59307 14.6953 5.51774M14.6953 24.0112C15.1329 24.3965 15.7455 25.3983 14.6953 26.3229M23.3935 6.0988C22.7771 6.06078 21.5672 6.35334 21.6587 7.82766M7.15191 21.1216C7.19006 21.736 6.89652 22.9417 5.41718 22.8505M6.58009 6.09566C6.54191 6.7106 6.83575 7.91762 8.31659 7.8263M21.6539 21.1246C22.2703 21.0887 23.4801 21.3653 23.3886 22.7592M26.2929 14.7645C25.9064 14.3284 24.9012 13.7179 23.9734 14.7645M5.41718 14.1866C5.0306 14.6227 4.02547 15.2332 3.09766 14.1866" stroke="#D0D0D0" stroke-width="1.5" stroke-linecap="round"/>
</svg>
