<svg width="44" height="52" viewBox="0 0 44 52" fill="none" xmlns="http://www.w3.org/2000/svg">
<path d="M13.7505 22.666V19.666C13.7505 15.2477 17.4441 11.666 22.0005 11.666C26.5569 11.666 30.2505 15.2477 30.2505 19.666V22.666" stroke="black" stroke-width="2.5"/>
<path d="M25.4505 21.75H18.5513C11.4221 21.75 8.66431 23.5613 6.69274 30.4351C4.91692 36.6264 4.02902 39.722 4.95735 42.1227C5.52585 43.5929 6.53522 44.8678 7.85763 45.7857C12.6406 49.1063 31.1428 49.2579 36.1441 45.7857C37.4665 44.8678 38.476 43.5929 39.0445 42.1227C39.9727 39.722 39.0848 36.6264 37.309 30.4351C35.4159 23.8349 32.8749 21.75 25.4505 21.75Z" fill="black"/>
<path d="M20.1665 28.166H23.8332" stroke="white" stroke-width="2.5" stroke-linecap="round"/>
<circle cx="33.5005" cy="10.5" r="10.5" fill="#F3A17C"/>
<path d="M31.1345 15.182C28.6255 15.182 27.5595 13.089 27.5595 10.515C27.5595 7.941 28.6255 5.835 31.1345 5.835C33.6435 5.835 34.6965 7.941 34.6965 10.515C34.6965 13.089 33.6435 15.182 31.1345 15.182ZM31.1345 13.973C32.7465 13.973 33.2275 12.361 33.2275 10.515C33.2275 8.669 32.7465 7.044 31.1345 7.044C29.5095 7.044 29.0285 8.669 29.0285 10.515C29.0285 12.361 29.5095 13.973 31.1345 13.973ZM37.3064 15V8.331C36.9164 8.695 36.2274 8.76 35.4214 8.76V7.616C37.0074 7.577 37.4754 7.096 37.5924 6.017H38.7104V15H37.3064Z" fill="white"/>
</svg>
