<?xml version="1.0" encoding="UTF-8"?>
<svg version="1.1" xmlns="http://www.w3.org/2000/svg" width="469" height="160">
<path d="M0 0 C2.17586586 -0.01190591 4.34890189 -0.06109915 6.52416992 -0.11157227 C7.91022382 -0.12103622 9.2962951 -0.12827139 10.68237305 -0.13305664 C11.94106201 -0.14651123 13.19975098 -0.15996582 14.49658203 -0.17382812 C17.7487793 0.42553711 17.7487793 0.42553711 20.15722656 2.42138672 C22.27593229 6.42056973 22.32577244 9.5891017 22.2800293 14.05053711 C22.2838562 14.87505371 22.28768311 15.69957031 22.29162598 16.54907227 C22.29434026 18.28720322 22.28701288 20.02537536 22.27026367 21.76342773 C22.24884535 24.41735269 22.27007985 27.06857091 22.2956543 29.72241211 C22.29301093 31.41512639 22.28788577 33.107839 22.2800293 34.80053711 C22.28812622 35.59024902 22.29622314 36.37996094 22.30456543 37.19360352 C22.24151035 40.91566613 21.93084522 43.08285267 20.1550293 46.42529297 C16.90881706 49.12377277 14.90913177 49.0568703 10.7175293 49.05444336 C10.04459839 49.05685532 9.37166748 49.05926727 8.67834473 49.06175232 C7.25954275 49.06077544 5.84070192 49.04741898 4.42211914 49.02246094 C2.25494452 48.98813476 0.09184727 49.00180599 -2.07543945 49.02124023 C-3.45696716 49.01434141 -4.83848438 49.00466866 -6.2199707 48.99194336 C-7.47229492 48.98106689 -8.72461914 48.97019043 -10.01489258 48.95898438 C-13.81975887 48.33182438 -14.994666 47.50453948 -17.2512207 44.42553711 C-19.36505111 39.2313345 -18.43715847 32.81068142 -18.43652344 27.26367188 C-18.43870279 25.13057283 -18.45685797 22.99799742 -18.47583008 20.86499023 C-18.47876597 19.49324719 -18.48074946 18.12150172 -18.48168945 16.74975586 C-18.48579834 15.51314209 -18.48990723 14.27652832 -18.49414062 13.00244141 C-18.2347255 9.18265146 -17.5807375 6.0150941 -16.2512207 2.42553711 C-11.3860673 -0.8178985 -5.69512309 0.01478251 0 0 Z M-13.2512207 4.42553711 C-13.5812207 5.41553711 -13.9112207 6.40553711 -14.2512207 7.42553711 C-13.06305157 9.32978257 -13.06305157 9.32978257 -11.2512207 11.17553711 C-10.60926758 11.87163086 -9.96731445 12.56772461 -9.3059082 13.28491211 C-8.62786133 13.99131836 -7.94981445 14.69772461 -7.2512207 15.42553711 C-6.59379883 16.11131836 -5.93637695 16.79709961 -5.2590332 17.50366211 C-2.80447854 20.01588807 -2.80447854 20.01588807 -0.2512207 22.42553711 C0.0787793 22.42553711 0.4087793 22.42553711 0.7487793 22.42553711 C0.7487793 16.48553711 0.7487793 10.54553711 0.7487793 4.42553711 C-3.8712207 4.42553711 -8.4912207 4.42553711 -13.2512207 4.42553711 Z M3.7487793 4.42553711 C3.7487793 8.05553711 3.7487793 11.68553711 3.7487793 15.42553711 C7.90236183 11.99084386 11.53753272 8.79283245 14.7487793 4.42553711 C11.1187793 4.42553711 7.4887793 4.42553711 3.7487793 4.42553711 Z M10.1862793 13.42553711 C9.57075195 13.97854492 8.95522461 14.53155273 8.32104492 15.10131836 C4.91184465 18.33891112 4.91184465 18.33891112 3.34692383 22.64819336 C3.30487696 25.09375307 3.30487696 25.09375307 3.7487793 28.42553711 C8.44226744 25.0364427 12.7740875 21.64111931 16.7487793 17.42553711 C17.0787793 17.09553711 17.4087793 16.76553711 17.7487793 16.42553711 C17.82057894 14.90625673 17.83269937 13.38386229 17.8112793 11.86303711 C17.80225586 11.03674805 17.79323242 10.21045898 17.78393555 9.35913086 C17.77233398 8.72104492 17.76073242 8.08295898 17.7487793 7.42553711 C15.16954784 7.42553711 12.07121745 11.62600711 10.1862793 13.42553711 Z M-14.2512207 13.42553711 C-14.2512207 15.40553711 -14.2512207 17.38553711 -14.2512207 19.42553711 C-12.2712207 19.42553711 -10.2912207 19.42553711 -8.2512207 19.42553711 C-9.89291599 17.40498907 -11.56033849 15.40510653 -13.2512207 13.42553711 C-13.5812207 13.42553711 -13.9112207 13.42553711 -14.2512207 13.42553711 Z M14.1862793 23.92553711 C12.9797168 25.16303711 12.9797168 25.16303711 11.7487793 26.42553711 C13.7287793 28.07553711 15.7087793 29.72553711 17.7487793 31.42553711 C17.7487793 28.12553711 17.7487793 24.82553711 17.7487793 21.42553711 C16.27140948 21.3091498 16.27140948 21.3091498 14.1862793 23.92553711 Z M-14.2512207 24.42553711 C-14.41175885 26.29875659 -14.41175885 26.29875659 -14.3762207 28.42553711 C-14.37879883 29.14741211 -14.38137695 29.86928711 -14.3840332 30.61303711 C-14.44817347 32.44643126 -14.44817347 32.44643126 -13.2512207 33.42553711 C-10.89808516 33.49825452 -8.54288402 33.50924579 -6.1887207 33.48803711 C-4.89836914 33.47901367 -3.60801758 33.46999023 -2.27856445 33.46069336 C-1.27954102 33.4490918 -0.28051758 33.43749023 0.7487793 33.42553711 C1.08258744 30.05117525 1.08258744 30.05117525 0.7487793 26.42553711 C-1.35283162 24.01529801 -2.63744439 23.50473405 -5.79418945 23.09741211 C-6.66688477 23.12319336 -7.53958008 23.14897461 -8.4387207 23.17553711 C-9.31915039 23.19100586 -10.19958008 23.20647461 -11.10668945 23.22241211 C-13.23200613 23.1938962 -13.23200613 23.1938962 -14.2512207 24.42553711 Z M6.1862793 30.48803711 C3.45433319 33.25693296 3.45433319 33.25693296 3.2487793 36.98803711 C3.77594818 40.6123232 4.21671997 41.87136372 6.7487793 44.42553711 C9.22116429 44.94547174 9.22116429 44.94547174 11.8737793 44.73803711 C12.76323242 44.71354492 13.65268555 44.68905273 14.5690918 44.66381836 C16.72467665 44.65833198 16.72467665 44.65833198 17.7487793 43.42553711 C18.50442678 40.22477048 18.50442678 40.22477048 17.7487793 36.42553711 C15.38863904 33.40160741 12.72172046 30.84537294 9.7487793 28.42553711 C8.33037719 28.32103554 8.33037719 28.32103554 6.1862793 30.48803711 Z M-7.8137207 36.92553711 C-9.6100293 37.06475586 -9.6100293 37.06475586 -11.44262695 37.20678711 C-12.36946289 37.27897461 -13.29629883 37.35116211 -14.2512207 37.42553711 C-13.97581366 41.24367158 -13.97581366 41.24367158 -12.2512207 44.42553711 C-7.85903245 44.96899245 -4.37065125 45.17182414 -0.6262207 42.67553711 C0.99405882 40.54037897 0.99405882 40.54037897 0.4987793 38.17553711 C0.2512793 37.59803711 0.0037793 37.02053711 -0.2512207 36.42553711 C-2.76838091 36.42553711 -5.30716128 36.73085288 -7.8137207 36.92553711 Z " fill="#F1A37D" transform="translate(36.251220703125,103.574462890625)"/>
<path d="M0 0 C2.42558782 0.62745825 2.42558782 0.62745825 5.26171875 -0.10546875 C8.85655476 -0.61901675 10.99553556 0.1097071 14.32421875 1.45703125 C14.32421875 3.43703125 14.32421875 5.41703125 14.32421875 7.45703125 C16.96421875 7.45703125 19.60421875 7.45703125 22.32421875 7.45703125 C23.32421875 10.45703125 23.32421875 10.45703125 22.32421875 13.45703125 C15.06477662 14.61854199 7.66129555 15.02512512 0.32421875 14.45703125 C-0.33578125 13.79703125 -0.99578125 13.13703125 -1.67578125 12.45703125 C-2.20945312 12.781875 -2.743125 13.10671875 -3.29296875 13.44140625 C-6.25870789 14.70549178 -8.58508099 14.72283322 -11.80078125 14.70703125 C-12.85523437 14.7121875 -13.9096875 14.71734375 -14.99609375 14.72265625 C-17.67578125 14.45703125 -17.67578125 14.45703125 -19.67578125 12.45703125 C-20.33578125 13.11703125 -20.99578125 13.77703125 -21.67578125 14.45703125 C-23.58186223 11.24520976 -23.89844372 8.91820522 -23.80078125 5.20703125 C-23.77371094 3.86898437 -23.77371094 3.86898437 -23.74609375 2.50390625 C-23.72289063 1.8284375 -23.6996875 1.15296875 -23.67578125 0.45703125 C-15.94591433 -0.57361767 -7.70712644 -1.56392785 0 0 Z M-8.67578125 2.45703125 C-7.67578125 4.45703125 -7.67578125 4.45703125 -7.67578125 4.45703125 Z M-4.67578125 2.45703125 C-4.67578125 3.11703125 -4.67578125 3.77703125 -4.67578125 4.45703125 C-4.01578125 4.12703125 -3.35578125 3.79703125 -2.67578125 3.45703125 C-3.33578125 3.12703125 -3.99578125 2.79703125 -4.67578125 2.45703125 Z M-0.67578125 5.45703125 C-1.66578125 6.94203125 -1.66578125 6.94203125 -2.67578125 8.45703125 C-1.68578125 8.45703125 -0.69578125 8.45703125 0.32421875 8.45703125 C0.32421875 7.46703125 0.32421875 6.47703125 0.32421875 5.45703125 C-0.00578125 5.45703125 -0.33578125 5.45703125 -0.67578125 5.45703125 Z M3.32421875 5.45703125 C4.32421875 7.45703125 4.32421875 7.45703125 4.32421875 7.45703125 Z M7.32421875 7.45703125 C7.98421875 8.11703125 8.64421875 8.77703125 9.32421875 9.45703125 C9.32421875 8.79703125 9.32421875 8.13703125 9.32421875 7.45703125 C8.66421875 7.45703125 8.00421875 7.45703125 7.32421875 7.45703125 Z M-16.67578125 9.45703125 C-16.34578125 10.44703125 -16.01578125 11.43703125 -15.67578125 12.45703125 C-15.67578125 11.46703125 -15.67578125 10.47703125 -15.67578125 9.45703125 C-16.00578125 9.45703125 -16.33578125 9.45703125 -16.67578125 9.45703125 Z " fill="#EFA37F" transform="translate(92.67578125,133.54296875)"/>
<path d="M0 0 C2.31 0.33 4.62 0.66 7 1 C7.144375 1.598125 7.28875 2.19625 7.4375 2.8125 C7.8872439 4.56150404 8.42892341 6.28677023 9 8 C11.31 8 13.62 8 16 8 C17 11 17 11 16 14 C8.66236293 15.17402193 1.41834582 15.09377123 -6 15 C-6.33 14.34 -6.66 13.68 -7 13 C-3.55549263 10.70366176 -1.06187717 10.45983515 3 10 C3 9.34 3 8.68 3 8 C1.35 8.33 -0.3 8.66 -2 9 C-2.33 7.68 -2.66 6.36 -3 5 C-0.03 5.495 -0.03 5.495 3 6 C3.33 4.68 3.66 3.36 4 2 C2.68 2 1.36 2 0 2 C0 1.34 0 0.68 0 0 Z " fill="#FBAF8A" transform="translate(99,133)"/>
<path d="M0 0 C1.875 1.375 1.875 1.375 3 3 C3 3.99 3 4.98 3 6 C2.01 6 1.02 6 0 6 C-0.45375 5.505 -0.9075 5.01 -1.375 4.5 C-2.96224523 2.72110101 -2.96224523 2.72110101 -5.6875 2.8125 C-6.450625 2.874375 -7.21375 2.93625 -8 3 C-8.20625 4.27875 -8.4125 5.5575 -8.625 6.875 C-8.79902344 7.95394531 -8.79902344 7.95394531 -8.9765625 9.0546875 C-8.98429687 9.69664063 -8.99203125 10.33859375 -9 11 C-7.16116119 13.28728734 -7.16116119 13.28728734 -4.375 13.125 C-3.59125 13.08375 -2.8075 13.0425 -2 13 C-1.67 12.34 -1.34 11.68 -1 11 C-1.99 11 -2.98 11 -4 11 C-4 10.01 -4 9.02 -4 8 C-1.36 8 1.28 8 4 8 C4 10.64 4 13.28 4 16 C3.01 16 2.02 16 1 16 C0.30003906 16.11859375 -0.39992188 16.2371875 -1.12109375 16.359375 C-7.34555113 17.40903054 -7.34555113 17.40903054 -10.5 15.4375 C-12.83986377 11.63522138 -13.38861136 8.67102885 -12.375 4.3125 C-9.30610754 -0.84881913 -5.57556777 -1.69691193 0 0 Z " fill="#FEFDFC" transform="translate(79,112)"/>
<path d="M0 0 C0.33 0 0.66 0 1 0 C1.33 1.98 1.66 3.96 2 6 C2.33 6 2.66 6 3 6 C3 8.64 3 11.28 3 14 C5.64 14 8.28 14 11 14 C11 14.66 11 15.32 11 16 C11.99 16.33 12.98 16.66 14 17 C9.05 17.495 9.05 17.495 4 18 C4 20.64 4 23.28 4 26 C10.93 26.495 10.93 26.495 18 27 C18 27.33 18 27.66 18 28 C12.39 28 6.78 28 1 28 C1 30.64 1 33.28 1 36 C-1 34 -1 34 -1.24291992 30.97485352 C-1.23881104 29.70569092 -1.23470215 28.43652832 -1.23046875 27.12890625 C-1.23001053 26.45077377 -1.22955231 25.7726413 -1.2290802 25.07395935 C-1.22605812 23.63905082 -1.2181731 22.20414556 -1.20581055 20.76928711 C-1.1876003 18.5745885 -1.18530058 16.38031302 -1.18554688 14.18554688 C-1.14765045 3.44295134 -1.14765045 3.44295134 0 0 Z " fill="#D89171" transform="translate(19,110)"/>
<path d="M0 0 C3.00204281 2.42100227 3.00935621 4.07368015 3.5 7.9375 C3.36133177 11.30965919 2.94852588 12.07266934 0.875 15 C-2 17 -2 17 -5 17.625 C-9.14182881 16.762119 -10.56226471 15.44150865 -13 12 C-13.79530245 8.21105911 -13.55101237 5.02330869 -11.6875 1.5625 C-8.04021759 -1.81461334 -4.54561327 -1.05523165 0 0 Z M-8.6875 3.0625 C-10.69861232 6.03128486 -10.31688362 8.51428022 -10 12 C-8.17899853 14.19920496 -8.17899853 14.19920496 -5.625 14.4375 C-2.74131252 14.23228759 -2.74131252 14.23228759 -0.6875 11.5 C-0.130625 10.675 0.42625 9.85 1 9 C-0.24976756 5.34683329 -0.67098753 4.21934164 -4 2 C-6.90923892 1.73359337 -6.90923892 1.73359337 -8.6875 3.0625 Z " fill="#FDFDFD" transform="translate(129,112)"/>
<path d="M0 0 C5.70504883 0.10224102 5.70504883 0.10224102 8.1875 2.1875 C9.28559194 5.48177581 9.29946276 6.85161172 8.1875 10.1875 C8.46321139 12.19625442 8.78985737 14.19928687 9.1875 16.1875 C7.8675 16.1875 6.5475 16.1875 5.1875 16.1875 C5.1875 14.8675 5.1875 13.5475 5.1875 12.1875 C2.2175 11.6925 2.2175 11.6925 -0.8125 11.1875 C-0.8125 12.8375 -0.8125 14.4875 -0.8125 16.1875 C-2.1325 16.1875 -3.4525 16.1875 -4.8125 16.1875 C-4.83935095 13.70826199 -4.85926547 11.2293116 -4.875 8.75 C-4.88756836 7.68942383 -4.88756836 7.68942383 -4.90039062 6.60742188 C-4.90903588 4.80056441 -4.86470011 2.99362397 -4.8125 1.1875 C-3.8125 0.1875 -3.8125 0.1875 0 0 Z M-0.8125 3.1875 C-1.1425 4.8375 -1.4725 6.4875 -1.8125 8.1875 C0.8275 7.8575 3.4675 7.5275 6.1875 7.1875 C5.8575 5.8675 5.5275 4.5475 5.1875 3.1875 C3.2075 3.1875 1.2275 3.1875 -0.8125 3.1875 Z " fill="#FCFCFC" transform="translate(138.8125,110.8125)"/>
<path d="M0 0 C1.72150735 2.62756385 2.00349007 4.6843312 2.1875 7.8125 C1.20966355 12.04979127 0.86700002 13.35949998 -2.8125 15.8125 C-6.69726191 16.23629221 -8.91426781 16.42707992 -12.1875 14.1875 C-14.19689537 11.25069138 -14.67033049 9.3667378 -14.8125 5.8125 C-14.1875 2.5625 -14.1875 2.5625 -12.8125 -0.1875 C-8.6059331 -2.87502885 -4.19902712 -2.75108673 0 0 Z M-10.0625 2.4375 C-12.14135656 4.74084378 -12.14135656 4.74084378 -11.6875 7.9375 C-11.02941176 10.90931373 -11.02941176 10.90931373 -8.8125 12.8125 C-6.35508463 13.31264953 -6.35508463 13.31264953 -3.8125 12.8125 C-1.78353788 11.27436579 -1.78353788 11.27436579 -0.8125 8.8125 C-0.80575074 5.68569901 -0.80575074 5.68569901 -1.8125 2.8125 C-5.34435328 0.45793115 -6.56459383 -0.08876556 -10.0625 2.4375 Z " fill="#FEFEFE" transform="translate(112.8125,113.1875)"/>
<path d="M0 0 C1.65 0 3.3 0 5 0 C5.8394882 2.10171867 6.67139656 4.20646625 7.5 6.3125 C7.9640625 7.48425781 8.428125 8.65601562 8.90625 9.86328125 C10 13 10 13 10 16 C9.01 16 8.02 16 7 16 C6.67 14.68 6.34 13.36 6 12 C3.69 12 1.38 12 -1 12 C-1.33 13.32 -1.66 14.64 -2 16 C-2.99 16 -3.98 16 -5 16 C-4.34309381 12.21760329 -3.279869 8.78158474 -1.9375 5.1875 C-1.57527344 4.21167969 -1.21304688 3.23585938 -0.83984375 2.23046875 C-0.42412109 1.12638672 -0.42412109 1.12638672 0 0 Z M2 3 C1.67 4.98 1.34 6.96 1 9 C1.99 9 2.98 9 4 9 C3.67 7.02 3.34 5.04 3 3 C2.67 3 2.34 3 2 3 Z " fill="#FCFCFC" transform="translate(154,112)"/>
<path d="M0 0 C0.66 0.33 1.32 0.66 2 1 C2 5.29 2 9.58 2 14 C4.64 14 7.28 14 10 14 C10 14.99 10 15.98 10 17 C6.37 17 2.74 17 -1 17 C-2.51833122 13.96333757 -1.87743587 11.2908035 -1.625 7.9375 C-1.48964844 6.03291016 -1.48964844 6.03291016 -1.3515625 4.08984375 C-1 1 -1 1 0 0 Z " fill="#F4F0EE" transform="translate(86,111)"/>
<path d="M0 0 C0.33 0.66 0.66 1.32 1 2 C3.02463255 2.65213292 3.02463255 2.65213292 5 3 C4.67 3.99 4.34 4.98 4 6 C3.01 6.33 2.02 6.66 1 7 C0.67 7.66 0.34 8.32 0 9 C0.66 9 1.32 9 2 9 C2 9.66 2 10.32 2 11 C-1.875 10.125 -1.875 10.125 -3 9 C-3.66 9.66 -4.32 10.32 -5 11 C-6.85776765 7.86501708 -7.20140476 5.62528568 -7 2 C-4.69 1.34 -2.38 0.68 0 0 Z " fill="#F6AA87" transform="translate(76,137)"/>
<path d="M0 0 C2.64 0 5.28 0 8 0 C8 2.64 8 5.28 8 8 C4.58900832 8 1.36911686 7.50854594 -2 7 C-1.360625 6.71125 -0.72125 6.4225 -0.0625 6.125 C2.15206079 5.17176549 2.15206079 5.17176549 3 3 C2.01 3 1.02 3 0 3 C0 2.01 0 1.02 0 0 Z " fill="#F1EDEB" transform="translate(75,120)"/>
<path d="M0 0 C0.99 0.33 1.98 0.66 3 1 C3.33 2.98 3.66 4.96 4 7 C0.18610442 8.79477439 -2.78645663 9.37453719 -7 9 C-7.66 8.34 -8.32 7.68 -9 7 C-7.02 7 -5.04 7 -3 7 C-2.814375 5.824375 -2.814375 5.824375 -2.625 4.625 C-2 2 -2 2 0 0 Z " fill="#FCB58D" transform="translate(88,139)"/>
<path d="M0 0 C2.31 0.33 4.62 0.66 7 1 C7.93423645 4.01031744 8.04449911 4.86650268 7 8 C2.545 8.495 2.545 8.495 -2 9 C-2.33 7.68 -2.66 6.36 -3 5 C-0.03 5.495 -0.03 5.495 3 6 C3.33 4.68 3.66 3.36 4 2 C2.68 2 1.36 2 0 2 C0 1.34 0 0.68 0 0 Z " fill="#FCB894" transform="translate(99,133)"/>
<path d="M0 0 C2.33333333 2.33333333 4.66666667 4.66666667 7 7 C3.29706315 7.33663062 1.60465619 7.47736015 -1.375 5.125 C-3 3 -3 3 -3 1 C-2.01 0.67 -1.02 0.34 0 0 Z " fill="#F9A882" transform="translate(22,145)"/>
<path d="M0 0 C0.66 0.33 1.32 0.66 2 1 C2 5.29 2 9.58 2 14 C1.34 14 0.68 14 0 14 C-0.19393875 11.85473901 -0.37998676 9.70876323 -0.5625 7.5625 C-0.71912109 5.77005859 -0.71912109 5.77005859 -0.87890625 3.94140625 C-0.91886719 2.97074219 -0.95882812 2.00007813 -1 1 C-0.67 0.67 -0.34 0.34 0 0 Z " fill="#FEFEFD" transform="translate(86,111)"/>
<path d="M0 0 C2.475 0.99 2.475 0.99 5 2 C5 2.99 5 3.98 5 5 C2.69 5.33 0.38 5.66 -2 6 C-2.33 5.34 -2.66 4.68 -3 4 C-2.67 3.34 -2.34 2.68 -2 2 C-1.34 2 -0.68 2 0 2 C0 1.34 0 0.68 0 0 Z " fill="#EC9F7A" transform="translate(80,141)"/>
<path d="M0 0 C0.33 0.66 0.66 1.32 1 2 C3.02463255 2.65213292 3.02463255 2.65213292 5 3 C5 3.33 5 3.66 5 4 C1.37 4 -2.26 4 -6 4 C-6.33 3.34 -6.66 2.68 -7 2 C-4.69 1.34 -2.38 0.68 0 0 Z " fill="#FBB898" transform="translate(76,137)"/>
<path d="M0 0 C0 0.66 0 1.32 0 2 C0.99 2.33 1.98 2.66 3 3 C-0.07322544 3.91058531 -2.80097361 4.08886184 -6 4 C-6.33 3.34 -6.66 2.68 -7 2 C-4 0 -4 0 0 0 Z " fill="#FFBC97" transform="translate(99,144)"/>
<path d="M0 0 C0.66 0.66 1.32 1.32 2 2 C1.01 2 0.02 2 -1 2 C-1.33 2.99 -1.66 3.98 -2 5 C-2.33 4.34 -2.66 3.68 -3 3 C-4.65 3.33 -6.3 3.66 -8 4 C-8.33 3.01 -8.66 2.02 -9 1 C-5.98675805 -0.50662097 -3.31713623 -0.17770373 0 0 Z " fill="#FBB197" transform="translate(85,133)"/>
<path d="M0 0 C0.99 0.33 1.98 0.66 3 1 C3.33 2.98 3.66 4.96 4 7 C3.67 6.34 3.34 5.68 3 5 C0.47266765 4.34444881 0.47266765 4.34444881 -2 4 C-2 2 -2 2 0 0 Z " fill="#FBBCA0" transform="translate(88,139)"/>
<path d="M0 0 C2.97 0.495 2.97 0.495 6 1 C6.33 1.99 6.66 2.98 7 4 C6.34 4 5.68 4 5 4 C4.67 4.66 4.34 5.32 4 6 C4 5.01 4 4.02 4 3 C3.01 3.33 2.02 3.66 1 4 C0.67 2.68 0.34 1.36 0 0 Z " fill="#F5B18C" transform="translate(88,133)"/>
<path d="M0 0 C1.32 0.33 2.64 0.66 4 1 C4 2.98 4 4.96 4 7 C3.01 7 2.02 7 1 7 C1.020625 6.21625 1.04125 5.4325 1.0625 4.625 C1.18684063 2.01885039 1.18684063 2.01885039 0 0 Z " fill="#FDFBFA" transform="translate(79,121)"/>
<path d="M0 0 C0 0.66 0 1.32 0 2 C-3.13349732 3.04449911 -3.98968256 2.93423645 -7 2 C-7 1.34 -7 0.68 -7 0 C-3.86650268 -1.04449911 -3.01031744 -0.93423645 0 0 Z " fill="#EE9F7A" transform="translate(113,144)"/>
</svg>
