<svg width="170" height="56" viewBox="0 0 170 56" fill="none" xmlns="http://www.w3.org/2000/svg">
<path d="M65.4446 28.6084C64.0295 28.6084 62.761 28.3732 61.6392 27.9113C60.5174 27.4494 59.551 26.7943 58.7571 25.9545C57.9632 25.1147 57.3505 24.0985 56.9363 22.9143C56.5221 21.7301 56.3064 20.4368 56.3064 19.0175C56.3064 17.5814 56.5308 16.2629 56.9967 15.0535C57.4541 13.8442 58.1013 12.7944 58.9383 11.9125C59.7753 11.0307 60.7677 10.3505 61.9067 9.86337C63.0544 9.37627 64.3142 9.14111 65.6862 9.14111C67.1791 9.14111 68.4993 9.41826 69.6556 9.97254C70.8119 10.5268 71.7438 11.2995 72.46 12.2989C73.1763 13.2983 73.6077 14.4656 73.7458 15.801H71.718C71.4591 14.8687 71.0449 14.0709 70.4667 13.4074C69.8886 12.7356 69.1983 12.2233 68.3958 11.8706C67.5933 11.5094 66.6872 11.3331 65.6948 11.3331C64.3228 11.3331 63.1148 11.669 62.0706 12.3325C61.0265 13.0043 60.2068 13.9197 59.6114 15.0787C59.0159 16.2377 58.7139 17.5562 58.7139 19.0259C58.7139 20.4956 58.9814 21.7889 59.5164 22.9059C60.0514 24.0229 60.828 24.8879 61.8463 25.5094C62.8645 26.1309 64.064 26.4416 65.4619 26.4416C66.5405 26.4416 67.4811 26.24 68.2836 25.8285C69.0861 25.417 69.7419 24.8291 70.2424 24.0397C70.7429 23.2586 71.0794 22.2928 71.2606 21.1507H72.7189C72.3997 23.6534 71.5971 25.5178 70.3028 26.7607C68.9912 27.9869 67.3775 28.6084 65.4446 28.6084ZM72.2271 28.3144C72.2271 27.6761 72.2443 26.9539 72.2702 26.1477C72.2961 25.3414 72.3479 24.5268 72.4083 23.6953C72.4687 22.8639 72.5205 22.1165 72.555 21.4614H65.9882V19.2862H74.5569V28.3228H72.2271V28.3144Z" fill="black"/>
<path d="M80.4214 9.14111V25.2889H90.3741V27.3917H78.207V9.14111H80.4214Z" fill="black"/>
<path d="M103.149 28.6084C101.461 28.6084 99.921 28.2052 98.5456 27.399C97.1703 26.5928 96.0749 25.4674 95.2513 24.0145C94.4277 22.5616 94.0242 20.8483 94.0242 18.8747C94.0242 16.9011 94.436 15.1795 95.2513 13.7182C96.0667 12.2569 97.162 11.1315 98.5456 10.3337C99.921 9.53583 101.453 9.14111 103.149 9.14111C104.846 9.14111 106.378 9.53583 107.753 10.3337C109.129 11.1315 110.224 12.2569 111.048 13.7182C111.863 15.1795 112.275 16.9011 112.275 18.8747C112.275 20.8483 111.863 22.5616 111.048 24.0145C110.232 25.4674 109.137 26.5928 107.753 27.399C106.37 28.2052 104.838 28.6084 103.149 28.6084ZM103.149 26.4248C104.442 26.4248 105.604 26.1393 106.625 25.5682C107.646 24.9971 108.47 24.1489 109.079 23.0235C109.689 21.8981 109.993 20.5124 109.993 18.8663C109.993 17.2203 109.689 15.8429 109.079 14.726C108.47 13.609 107.654 12.7608 106.625 12.1813C105.595 11.6018 104.442 11.3079 103.149 11.3079C101.873 11.3079 100.72 11.6018 99.6904 12.1813C98.6527 12.7608 97.8374 13.609 97.2279 14.726C96.6185 15.8429 96.3137 17.2203 96.3137 18.8663C96.3137 20.5124 96.6185 21.8981 97.2279 23.0235C97.8374 24.1489 98.6609 24.9971 99.6904 25.5682C100.72 26.1393 101.873 26.4248 103.149 26.4248Z" fill="black"/>
<path d="M123.833 28.6084C122.145 28.6084 120.605 28.2052 119.229 27.399C117.854 26.5928 116.759 25.4674 115.935 24.0145C115.112 22.5616 114.708 20.8483 114.708 18.8747C114.708 16.9011 115.12 15.1795 115.935 13.7182C116.75 12.2569 117.846 11.1315 119.229 10.3337C120.605 9.53583 122.137 9.14111 123.833 9.14111C125.53 9.14111 127.062 9.53583 128.437 10.3337C129.812 11.1315 130.908 12.2569 131.731 13.7182C132.547 15.1795 132.959 16.9011 132.959 18.8747C132.959 20.8483 132.547 22.5616 131.731 24.0145C130.916 25.4674 129.821 26.5928 128.437 27.399C127.062 28.2052 125.522 28.6084 123.833 28.6084ZM123.833 26.4248C125.126 26.4248 126.288 26.1393 127.309 25.5682C128.33 24.9971 129.154 24.1489 129.763 23.0235C130.373 21.8981 130.677 20.5124 130.677 18.8663C130.677 17.2203 130.373 15.8429 129.763 14.726C129.154 13.609 128.338 12.7608 127.309 12.1813C126.279 11.6018 125.126 11.3079 123.833 11.3079C122.557 11.3079 121.404 11.6018 120.374 12.1813C119.337 12.7608 118.521 13.609 117.912 14.726C117.302 15.8429 116.998 17.2203 116.998 18.8663C116.998 20.5124 117.302 21.8981 117.912 23.0235C118.521 24.1489 119.345 24.9971 120.374 25.5682C121.404 26.1393 122.557 26.4248 123.833 26.4248Z" fill="black"/>
<path d="M136.609 27.3917V9.14111H144.96C146.281 9.14111 147.408 9.33587 148.333 9.71727C149.266 10.0987 149.981 10.6748 150.469 11.4458C150.965 12.2167 151.209 13.1742 151.209 14.3347C151.209 15.1218 151.075 15.7954 150.814 16.3553C150.553 16.9152 150.192 17.3859 149.721 17.7754C149.258 18.1568 148.703 18.4571 148.081 18.66C147.45 18.8628 146.769 19.0008 146.028 19.0495L145.944 18.9115C146.97 18.9521 147.853 19.0738 148.594 19.2767C149.334 19.4796 149.906 19.8529 150.309 20.3966C150.713 20.9403 150.923 21.7518 150.923 22.8392V27.3835H148.594V22.8392C148.594 22.0926 148.459 21.5083 148.198 21.0863C147.938 20.6644 147.5 20.3641 146.886 20.1856C146.272 20.007 145.44 19.9178 144.372 19.9178H138.93V27.3835H136.609V27.3917ZM138.938 17.816H144.96C146.281 17.816 147.265 17.4914 147.912 16.8503C148.56 16.2011 148.888 15.3653 148.888 14.3347C148.888 13.3447 148.56 12.5819 147.912 12.0463C147.265 11.5107 146.281 11.2429 144.96 11.2429H138.938V17.816Z" fill="black"/>
<path d="M154 27L160.812 9H163.133L170 27H167.623L161.633 10.7208H162.295L156.305 27H154ZM157.645 22.2939V20.221H166.251V22.2939H157.645Z" fill="black"/>
<path d="M101.752 35.1074H104.104C104.429 35.1074 104.741 35.1393 105.041 35.203C105.346 35.2604 105.617 35.3624 105.853 35.5089C106.089 35.6555 106.277 35.8531 106.417 36.1016C106.557 36.3502 106.627 36.6657 106.627 37.0481C106.627 37.5388 106.49 37.9499 106.216 38.2813C105.949 38.6127 105.563 38.8135 105.06 38.8836L106.857 41.8758H105.404L103.836 39.0078H102.956V41.8758H101.752V35.1074ZM103.893 37.9754C104.065 37.9754 104.238 37.969 104.41 37.9563C104.582 37.9371 104.738 37.8989 104.878 37.8415C105.025 37.7778 105.143 37.6854 105.232 37.5643C105.321 37.4368 105.366 37.2616 105.366 37.0385C105.366 36.8409 105.324 36.6816 105.241 36.5605C105.158 36.4394 105.05 36.3502 104.916 36.2928C104.782 36.2291 104.633 36.1877 104.467 36.1686C104.308 36.1494 104.151 36.1399 103.999 36.1399H102.956V37.9754H103.893Z" fill="#F3A17C"/>
<path d="M95.9084 35.1074H100.392V36.1972H97.113V37.8607H100.22V38.9505H97.113V40.786H100.564V41.8758H95.9084V35.1074Z" fill="#F3A17C"/>
<path d="M88.7478 35.1074H90.134L91.979 40.2219L93.8814 35.1074H95.1816L92.4475 41.8758H91.4054L88.7478 35.1074Z" fill="#F3A17C"/>
<path d="M81.205 38.5204C81.205 37.9786 81.2942 37.4879 81.4726 37.0481C81.6511 36.602 81.8965 36.2228 82.2087 35.9105C82.5274 35.5982 82.9034 35.3592 83.3368 35.1935C83.7766 35.0215 84.2577 34.9354 84.7803 34.9354C85.3093 34.929 85.7937 35.0087 86.2334 35.1744C86.6732 35.3337 87.0524 35.5695 87.3711 35.8818C87.6897 36.1941 87.9383 36.5701 88.1167 37.0099C88.2952 37.4496 88.3844 37.9404 88.3844 38.4821C88.3844 39.0111 88.2952 39.4923 88.1167 39.9256C87.9383 40.359 87.6897 40.7319 87.3711 41.0441C87.0524 41.3564 86.6732 41.6018 86.2334 41.7803C85.7937 41.9523 85.3093 42.0416 84.7803 42.0479C84.2577 42.0479 83.7766 41.9651 83.3368 41.7994C82.9034 41.6273 82.5274 41.3883 82.2087 41.0824C81.8965 40.7701 81.6511 40.3973 81.4726 39.9639C81.2942 39.5305 81.205 39.0493 81.205 38.5204ZM82.4669 38.4439C82.4669 38.8071 82.521 39.1417 82.6294 39.4477C82.7441 39.7536 82.9034 40.0181 83.1074 40.2411C83.3113 40.4642 83.5535 40.6394 83.8339 40.7669C84.1207 40.8944 84.4394 40.9581 84.7899 40.9581C85.1404 40.9581 85.4591 40.8944 85.7459 40.7669C86.0327 40.6394 86.278 40.4642 86.482 40.2411C86.6859 40.0181 86.8421 39.7536 86.9504 39.4477C87.0651 39.1417 87.1225 38.8071 87.1225 38.4439C87.1225 38.1061 87.0651 37.7906 86.9504 37.4974C86.8421 37.2043 86.6859 36.9494 86.482 36.7327C86.278 36.5096 86.0327 36.3375 85.7459 36.2164C85.4591 36.089 85.1404 36.0252 84.7899 36.0252C84.4394 36.0252 84.1207 36.089 83.8339 36.2164C83.5535 36.3375 83.3113 36.5096 83.1074 36.7327C82.9034 36.9494 82.7441 37.2043 82.6294 37.4974C82.521 37.7906 82.4669 38.1061 82.4669 38.4439Z" fill="#F3A17C"/>
<path d="M79.67 36.6943C79.4214 36.4266 79.1793 36.2482 78.9435 36.159C78.714 36.0697 78.4814 36.0251 78.2456 36.0251C77.8951 36.0251 77.5764 36.0889 77.2896 36.2163C77.0092 36.3374 76.767 36.5095 76.5631 36.7326C76.3591 36.9492 76.1998 37.2042 76.0851 37.4973C75.9767 37.7905 75.9225 38.106 75.9225 38.4438C75.9225 38.807 75.9767 39.1416 76.0851 39.4475C76.1998 39.7535 76.3591 40.0179 76.5631 40.241C76.767 40.4641 77.0092 40.6393 77.2896 40.7668C77.5764 40.8943 77.8951 40.958 78.2456 40.958C78.5196 40.958 78.7841 40.8943 79.039 40.7668C79.3004 40.633 79.5425 40.4226 79.7656 40.1359L80.7598 40.8433C80.4539 41.2639 80.0811 41.5698 79.6413 41.761C79.2016 41.9522 78.7331 42.0478 78.236 42.0478C77.7134 42.0478 77.2322 41.965 76.7925 41.7993C76.3591 41.6272 75.9831 41.3882 75.6644 41.0823C75.3521 40.77 75.1068 40.3972 74.9283 39.9638C74.7499 39.5304 74.6606 39.0492 74.6606 38.5202C74.6606 37.9785 74.7499 37.4878 74.9283 37.048C75.1068 36.6019 75.3521 36.2227 75.6644 35.9104C75.9831 35.5981 76.3591 35.3591 76.7925 35.1934C77.2322 35.0213 77.7134 34.9353 78.236 34.9353C78.6949 34.9353 79.1187 35.0182 79.5075 35.1839C79.9026 35.3432 80.2691 35.6172 80.6069 36.006L79.67 36.6943Z" fill="#F3A17C"/>
<path d="M72.8521 36.5605C72.7246 36.3757 72.5525 36.2418 72.3358 36.159C72.1255 36.0697 71.9025 36.0251 71.6666 36.0251C71.5264 36.0251 71.3894 36.0411 71.2556 36.0729C71.1281 36.1048 71.0102 36.1558 70.9019 36.2259C70.7999 36.296 70.717 36.3884 70.6533 36.5031C70.5896 36.6115 70.5577 36.7421 70.5577 36.8951C70.5577 37.1245 70.6374 37.2998 70.7967 37.4209C70.956 37.542 71.1536 37.6471 71.3894 37.7363C71.6252 37.8256 71.8833 37.9116 72.1638 37.9945C72.4442 38.0773 72.7023 38.192 72.9381 38.3386C73.1739 38.4852 73.3715 38.6796 73.5308 38.9218C73.6901 39.1639 73.7698 39.4858 73.7698 39.8873C73.7698 40.2506 73.7029 40.5692 73.5691 40.8433C73.4352 41.111 73.2536 41.334 73.0241 41.5125C72.8011 41.6909 72.5398 41.8248 72.2402 41.914C71.9407 42.0032 71.6252 42.0478 71.2938 42.0478C70.8732 42.0478 70.4685 41.9777 70.0797 41.8375C69.6909 41.6973 69.3563 41.4615 69.0759 41.1301L69.9841 40.2506C70.1307 40.4736 70.3219 40.6489 70.5577 40.7764C70.7999 40.8975 71.0548 40.958 71.3225 40.958C71.4627 40.958 71.6029 40.9389 71.7431 40.9006C71.8833 40.8624 72.0108 40.805 72.1255 40.7286C72.2402 40.6521 72.3326 40.5565 72.4028 40.4418C72.4729 40.3207 72.5079 40.1837 72.5079 40.0307C72.5079 39.7821 72.4282 39.5909 72.2689 39.4571C72.1096 39.3233 71.912 39.2117 71.6762 39.1225C71.4404 39.0269 71.1823 38.9377 70.9019 38.8548C70.6214 38.772 70.3633 38.6605 70.1275 38.5202C69.8917 38.3737 69.6941 38.1825 69.5348 37.9467C69.3755 37.7045 69.2958 37.3826 69.2958 36.9811C69.2958 36.6306 69.3659 36.3279 69.5061 36.0729C69.6527 35.818 69.8407 35.6077 70.0702 35.442C70.306 35.2699 70.5736 35.1424 70.8732 35.0596C71.1727 34.9767 71.4786 34.9353 71.7909 34.9353C72.1478 34.9353 72.492 34.9895 72.8234 35.0978C73.1612 35.2062 73.4639 35.3846 73.7316 35.6332L72.8521 36.5605Z" fill="#F3A17C"/>
<path d="M66.8451 35.1074H68.0496V41.8758H66.8451V35.1074Z" fill="#F3A17C"/>
<path d="M59.6196 35.1074H62.2868C62.7329 35.1074 63.1631 35.1775 63.5774 35.3177C63.9917 35.4516 64.3581 35.6587 64.6768 35.9391C64.9954 36.2195 65.2504 36.5733 65.4416 37.0003C65.6328 37.4209 65.7284 37.918 65.7284 38.4916C65.7284 39.0716 65.6168 39.5751 65.3938 40.0021C65.1771 40.4227 64.8935 40.7732 64.5429 41.0536C64.1988 41.3277 63.8132 41.5348 63.3862 41.675C62.9656 41.8089 62.5513 41.8758 62.1434 41.8758H59.6196V35.1074ZM61.7228 40.786C62.0988 40.786 62.4525 40.7445 62.7839 40.6617C63.1217 40.5725 63.4149 40.4386 63.6634 40.2602C63.912 40.0753 64.1064 39.8395 64.2466 39.5527C64.3932 39.2596 64.4665 38.9059 64.4665 38.4916C64.4665 38.0837 64.4027 37.7332 64.2753 37.44C64.1478 37.1469 63.9694 36.911 63.7399 36.7326C63.5169 36.5478 63.2492 36.4139 62.9369 36.3311C62.631 36.2419 62.2932 36.1972 61.9235 36.1972H60.8242V40.786H61.7228Z" fill="#F3A17C"/>
<path d="M108.96 44.4856H110.279L111.551 49.3611H111.57L113.09 44.4856H114.275L115.766 49.3611H115.786L117.114 44.4856H118.338L116.369 51.254H115.222L113.654 46.1012H113.635L112.067 51.254H110.958L108.96 44.4856Z" fill="#F3A17C"/>
<path d="M101.389 47.8985C101.389 47.3568 101.478 46.8661 101.656 46.4263C101.835 45.9802 102.08 45.601 102.393 45.2887C102.711 44.9764 103.087 44.7374 103.521 44.5717C103.96 44.3996 104.442 44.3136 104.964 44.3136C105.493 44.3072 105.978 44.3869 106.417 44.5526C106.857 44.7119 107.236 44.9477 107.555 45.26C107.874 45.5723 108.122 45.9483 108.301 46.3881C108.479 46.8278 108.568 47.3186 108.568 47.8603C108.568 48.3893 108.479 48.8704 108.301 49.3038C108.122 49.7372 107.874 50.11 107.555 50.4223C107.236 50.7346 106.857 50.98 106.417 51.1584C105.978 51.3305 105.493 51.4197 104.964 51.4261C104.442 51.4261 103.96 51.3433 103.521 51.1775C103.087 51.0055 102.711 50.7665 102.393 50.4606C102.08 50.1483 101.835 49.7754 101.656 49.3421C101.478 48.9087 101.389 48.4275 101.389 47.8985ZM102.651 47.822C102.651 48.1853 102.705 48.5199 102.813 48.8258C102.928 49.1317 103.087 49.3962 103.291 49.6193C103.495 49.8424 103.737 50.0176 104.018 50.1451C104.305 50.2726 104.623 50.3363 104.974 50.3363C105.324 50.3363 105.643 50.2726 105.93 50.1451C106.217 50.0176 106.462 49.8424 106.666 49.6193C106.87 49.3962 107.026 49.1317 107.134 48.8258C107.249 48.5199 107.306 48.1853 107.306 47.822C107.306 47.4843 107.249 47.1688 107.134 46.8756C107.026 46.5825 106.87 46.3275 106.666 46.1108C106.462 45.8878 106.217 45.7157 105.93 45.5946C105.643 45.4671 105.324 45.4034 104.974 45.4034C104.623 45.4034 104.305 45.4671 104.018 45.5946C103.737 45.7157 103.495 45.8878 103.291 46.1108C103.087 46.3275 102.928 46.5825 102.813 46.8756C102.705 47.1688 102.651 47.4843 102.651 47.822Z" fill="#F3A17C"/>
<path d="M96.7941 44.4856H97.9986V50.1641H100.876V51.254H96.7941V44.4856Z" fill="#F3A17C"/>
<path d="M95.3666 50.7568C94.5318 51.2029 93.5981 51.426 92.5656 51.426C92.043 51.426 91.5618 51.3431 91.1221 51.1774C90.6887 51.0054 90.3127 50.7664 89.994 50.4605C89.6817 50.1482 89.4364 49.7753 89.2579 49.342C89.0795 48.9086 88.9902 48.4274 88.9902 47.8984C88.9902 47.3567 89.0795 46.866 89.2579 46.4262C89.4364 45.9801 89.6817 45.6009 89.994 45.2886C90.3127 44.9763 90.6887 44.7373 91.1221 44.5716C91.5618 44.3995 92.043 44.3135 92.5656 44.3135C93.0818 44.3135 93.5662 44.3772 94.0187 44.5047C94.4712 44.6258 94.8759 44.8456 95.2328 45.1643L94.3437 46.0629C94.1271 45.8526 93.8626 45.6901 93.5503 45.5754C93.2444 45.4607 92.9193 45.4033 92.5752 45.4033C92.2246 45.4033 91.906 45.467 91.6192 45.5945C91.3388 45.7156 91.0966 45.8877 90.8926 46.1107C90.6887 46.3274 90.5294 46.5823 90.4147 46.8755C90.3063 47.1687 90.2521 47.4842 90.2521 47.8219C90.2521 48.1852 90.3063 48.5198 90.4147 48.8257C90.5294 49.1316 90.6887 49.3961 90.8926 49.6192C91.0966 49.8422 91.3388 50.0175 91.6192 50.145C91.906 50.2724 92.2246 50.3362 92.5752 50.3362C92.8811 50.3362 93.1679 50.3075 93.4356 50.2501C93.7096 50.1928 93.9518 50.1035 94.1621 49.9825V48.386H92.7759V47.2961H95.3666V50.7568Z" fill="#F3A17C"/>
<path d="M80.5032 44.4856H82.8549C83.1799 44.4856 83.4922 44.5175 83.7918 44.5812C84.0977 44.6386 84.3685 44.7405 84.6043 44.8871C84.8402 45.0337 85.0282 45.2313 85.1684 45.4798C85.3086 45.7284 85.3787 46.0438 85.3787 46.4262C85.3787 46.917 85.2417 47.3281 84.9676 47.6595C84.6999 47.9909 84.3144 48.1916 83.8109 48.2617L85.6081 51.254H84.155L82.5872 48.386H81.7077V51.254H80.5032V44.4856ZM82.6446 47.3535C82.8167 47.3535 82.9887 47.3472 83.1608 47.3344C83.3329 47.3153 83.489 47.2771 83.6292 47.2197C83.7758 47.156 83.8937 47.0636 83.983 46.9425C84.0722 46.815 84.1168 46.6397 84.1168 46.4167C84.1168 46.2191 84.0754 46.0598 83.9925 45.9387C83.9097 45.8176 83.8013 45.7284 83.6675 45.671C83.5336 45.6073 83.3839 45.5659 83.2182 45.5467C83.0588 45.5276 82.9027 45.5181 82.7497 45.5181H81.7077V47.3535H82.6446Z" fill="#F3A17C"/>
<path d="M79.0245 48.7684C79.0245 49.1763 78.9544 49.5459 78.8142 49.8773C78.674 50.2024 78.4828 50.4796 78.2406 50.709C77.9985 50.9385 77.7117 51.1169 77.3803 51.2444C77.0488 51.3655 76.6888 51.426 76.3 51.426C75.9112 51.426 75.5511 51.3655 75.2197 51.2444C74.8883 51.1169 74.5983 50.9385 74.3498 50.709C74.1076 50.4796 73.9164 50.2024 73.7762 49.8773C73.6424 49.5459 73.5754 49.1763 73.5754 48.7684V44.4856H74.78V48.7302C74.78 48.8959 74.8055 49.0711 74.8565 49.256C74.9074 49.4344 74.9903 49.6001 75.105 49.7531C75.2261 49.906 75.3822 50.0335 75.5734 50.1355C75.771 50.2311 76.0132 50.2789 76.3 50.2789C76.5868 50.2789 76.8258 50.2311 77.017 50.1355C77.2146 50.0335 77.3707 49.906 77.4854 49.7531C77.6065 49.6001 77.6925 49.4344 77.7435 49.256C77.7945 49.0711 77.82 48.8959 77.82 48.7302V44.4856H79.0245V48.7684Z" fill="#F3A17C"/>
<path d="M65.2776 47.8985C65.2776 47.3568 65.3668 46.8661 65.5453 46.4263C65.7237 45.9802 65.9691 45.601 66.2814 45.2887C66.6 44.9764 66.9761 44.7374 67.4094 44.5717C67.8492 44.3996 68.3304 44.3136 68.853 44.3136C69.3819 44.3072 69.8663 44.3869 70.3061 44.5526C70.7458 44.7119 71.125 44.9477 71.4437 45.26C71.7623 45.5723 72.0109 45.9483 72.1893 46.3881C72.3678 46.8278 72.457 47.3186 72.457 47.8603C72.457 48.3893 72.3678 48.8704 72.1893 49.3038C72.0109 49.7372 71.7623 50.11 71.4437 50.4223C71.125 50.7346 70.7458 50.98 70.3061 51.1584C69.8663 51.3305 69.3819 51.4197 68.853 51.4261C68.3304 51.4261 67.8492 51.3433 67.4094 51.1775C66.9761 51.0055 66.6 50.7665 66.2814 50.4606C65.9691 50.1483 65.7237 49.7754 65.5453 49.3421C65.3668 48.9087 65.2776 48.4275 65.2776 47.8985ZM66.5395 47.822C66.5395 48.1853 66.5937 48.5199 66.702 48.8258C66.8167 49.1317 66.9761 49.3962 67.18 49.6193C67.3839 49.8424 67.6261 50.0176 67.9065 50.1451C68.1933 50.2726 68.512 50.3363 68.8625 50.3363C69.2131 50.3363 69.5317 50.2726 69.8185 50.1451C70.1053 50.0176 70.3507 49.8424 70.5546 49.6193C70.7586 49.3962 70.9147 49.1317 71.023 48.8258C71.1378 48.5199 71.1951 48.1853 71.1951 47.822C71.1951 47.4843 71.1378 47.1688 71.023 46.8756C70.9147 46.5825 70.7586 46.3275 70.5546 46.1108C70.3507 45.8878 70.1053 45.7157 69.8185 45.5946C69.5317 45.4671 69.2131 45.4034 68.8625 45.4034C68.512 45.4034 68.1933 45.4671 67.9065 45.5946C67.6261 45.7157 67.3839 45.8878 67.18 46.1108C66.9761 46.3275 66.8167 46.5825 66.702 46.8756C66.5937 47.1688 66.5395 47.4843 66.5395 47.822Z" fill="#F3A17C"/>
<path d="M61.273 48.3573L58.7301 44.4856H60.2406L61.904 47.1815L63.5865 44.4856H65.0205L62.4776 48.3573V51.254H61.273V48.3573Z" fill="#F3A17C"/>
<path d="M38.2162 0.624146H7.47783C3.54061 0.624146 0.338013 3.81148 0.338013 7.72994V48.27C0.338013 52.1884 3.54061 55.3758 7.47783 55.3758H11.2582H14.0068H31.5964H34.345H38.2162C42.1534 55.3758 45.356 52.1884 45.356 48.27V7.72994C45.356 3.81148 42.1534 0.624146 38.2162 0.624146ZM3.45807 13.62L13.751 23.6256H3.45807V13.62ZM3.45807 26.7226H16.9453L21.2457 30.9039V37.5086L21.2375 39.0612H3.45807V26.7226ZM24.3658 23.412L41.8315 5.98841C42.0874 6.51415 42.236 7.10562 42.236 7.72994V17.6452L24.3575 34.7402V29.0761V23.412H24.3658ZM42.236 21.9498V38.5272L33.5609 30.2549L42.236 21.9498ZM39.4873 3.93471L24.3658 19.0171V3.72934H38.2162C38.6619 3.72934 39.0829 3.80327 39.4873 3.93471ZM7.47783 3.72934H21.2457V26.5665L3.45807 9.27433V7.72994C3.45807 5.52837 5.25747 3.72934 7.47783 3.72934ZM11.2582 52.2788H7.47783C5.25747 52.2788 3.45807 50.4797 3.45807 48.2782V42.1746H21.2292L21.2209 45.1237C21.2127 49.075 17.9771 52.287 14.0068 52.287H11.2582V52.2788ZM38.2162 52.2788H34.345H31.5964C27.6261 52.2788 24.3905 49.0668 24.3823 45.1155L24.3658 39.0448L31.3075 32.4072L42.236 42.8318V48.2864C42.236 50.488 40.4366 52.2788 38.2162 52.2788Z" fill="#F3A17C"/>
</svg>
