<svg width="46" height="56" viewBox="0 0 46 56" fill="none" xmlns="http://www.w3.org/2000/svg">
<path d="M37.8782 0.624146H7.13981C3.2026 0.624146 0 3.81148 0 7.72994V48.27C0 52.1884 3.2026 55.3758 7.13981 55.3758H10.9202H13.6688H31.2584H34.007H37.8782C41.8154 55.3758 45.018 52.1884 45.018 48.27V7.72994C45.018 3.81148 41.8154 0.624146 37.8782 0.624146ZM3.12006 13.62L13.413 23.6256H3.12006V13.62ZM3.12006 26.7226H16.6073L20.9077 30.9039V37.5086L20.8994 39.0612H3.12006V26.7226ZM24.0278 23.412L41.4935 5.98841C41.7494 6.51415 41.8979 7.10562 41.8979 7.72994V17.6452L24.0195 34.7402V29.0761V23.412H24.0278ZM41.8979 21.9498V38.5272L33.2228 30.2549L41.8979 21.9498ZM39.1493 3.93471L24.0278 19.0171V3.72934H37.8782C38.3239 3.72934 38.7449 3.80327 39.1493 3.93471ZM7.13981 3.72934H20.9077V26.5665L3.12006 9.27433V7.72994C3.12006 5.52837 4.91945 3.72934 7.13981 3.72934ZM10.9202 52.2788H7.13981C4.91945 52.2788 3.12006 50.4797 3.12006 48.2782V42.1746H20.8912L20.8829 45.1237C20.8747 49.075 17.6391 52.287 13.6688 52.287H10.9202V52.2788ZM37.8782 52.2788H34.007H31.2584C27.2881 52.2788 24.0525 49.0668 24.0443 45.1155L24.0278 39.0448L30.9695 32.4072L41.8979 42.8318V48.2864C41.8979 50.488 40.0985 52.2788 37.8782 52.2788Z" fill="#F3A17C"/>
</svg>
