<?xml version="1.0" encoding="UTF-8"?>
<svg version="1.1" xmlns="http://www.w3.org/2000/svg" width="118" height="108">
<path d="M0 0 C38.94 0 77.88 0 118 0 C118 35.64 118 71.28 118 108 C79.06 108 40.12 108 0 108 C0 72.36 0 36.72 0 0 Z " fill="#FEFEFE" transform="translate(0,0)"/>
<path d="M0 0 C1.3086985 0.89782804 2.60528458 1.81367023 3.88671875 2.75 C5.67032498 4.0978229 5.67032498 4.0978229 8.578125 4.5078125 C11.62938367 3.87213361 12.69530017 3.1695843 15.140625 1.3828125 C20.57297772 -2.26656073 26.26661998 -2.10212898 32.578125 -1.1171875 C38.57370978 1.20337849 42.9072022 5.33438008 45.65234375 11.1640625 C48.61200856 19.85573638 46.63698276 28.68891991 43.12109375 36.8828125 C40.78902762 41.41705753 38.01182886 45.13001697 34.578125 48.8828125 C33.57458984 50.00623047 33.57458984 50.00623047 32.55078125 51.15234375 C26.2495091 57.84103589 18.13235261 66.05708015 8.515625 66.8203125 C-3.29769066 65.65402974 -13.07234624 54.42975111 -20.421875 45.8828125 C-27.40835843 36.64734678 -30.63808673 26.45419836 -29.421875 14.8828125 C-28.29504323 8.58581141 -25.19972848 5.25492932 -20.359375 1.23046875 C-14.99896713 -2.49804075 -5.83715396 -2.69262263 0 0 Z " fill="#FEFEFE" transform="translate(49.421875,31.1171875)"/>
<path d="M0 0 C2.5625 1.6875 2.5625 1.6875 4 3 C6.01478239 1.99712626 8.0216773 0.98844439 10.0078125 -0.0703125 C16.64897452 -3.37864044 22.38051249 -4.23094128 29.609375 -2.3046875 C37.24813065 0.44989408 42.73109836 4.37216375 46.9375 11.375 C50.86542407 20.0112304 50.10404521 30.39696406 47.4375 39.3125 C41.17229333 55.41060048 28.71304961 67.40637025 14 76 C8.6764018 78.03799097 4.23289483 79.17212882 -1.31640625 77.16015625 C-7.98135501 74.06236316 -13.50851533 69.84129289 -19 65 C-19.77472656 64.32066406 -20.54945312 63.64132813 -21.34765625 62.94140625 C-30.11503151 54.74548941 -38.60172205 42.98864452 -39.46875 30.6328125 C-39.50280242 29.13055812 -39.51272014 27.62758643 -39.5 26.125 C-39.49141968 24.94309082 -39.49141968 24.94309082 -39.48266602 23.73730469 C-39.22895022 15.44412974 -36.83748506 9.3861164 -30.75 3.625 C-20.91111503 -3.87129331 -11.29186259 -5.01358699 0 0 Z M-28.8125 10.875 C-33.72415546 17.89165065 -33.96857281 25.25900481 -32.5703125 33.546875 C-28.81328587 48.11115106 -17.40223388 59.80027195 -5.375 68.25 C-1.13929372 70.69460762 2.40394682 72.19972062 7.33984375 71.80078125 C20.02666385 67.98169444 32.74900961 54.62176555 38.8515625 43.38671875 C42.94494177 34.87972985 44.97027639 25.93492763 42.30859375 16.56640625 C39.63068444 10.63915092 35.04553708 6.45465956 29 4 C21.45579863 3.05198528 15.86810254 3.35394387 9.69140625 7.8671875 C8 9 8 9 5 9.625 C1.94874133 8.98932111 0.88282483 8.2867718 -1.5625 6.5 C-10.64222026 0.37118883 -21.82889488 3.227248 -28.8125 10.875 Z " fill="#F3A582" transform="translate(53,26)"/>
</svg>
