<?xml version="1.0" encoding="UTF-8"?>
<svg version="1.1" xmlns="http://www.w3.org/2000/svg" width="39" height="46">
<path d="M0 0 C12.87 0 25.74 0 39 0 C39 15.18 39 30.36 39 46 C26.13 46 13.26 46 0 46 C0 30.82 0 15.64 0 0 Z " fill="#FEFEFE" transform="translate(0,0)"/>
<path d="M0 0 C1.32 0 2.64 0 4 0 C3.29979113 4.82487673 0.08925485 7.31906869 -3.1875 10.68359375 C-5.25220467 13.32232192 -6.03585074 14.64027311 -6 18 C-4.1468688 20.86875333 -4.1468688 20.86875333 -1.5625 23.5625 C3 28.58473282 3 28.58473282 3 33 C-0.5610073 31.51491624 -2.60021023 29.51458829 -5.125 26.625 C-5.80820312 25.85414062 -6.49140625 25.08328125 -7.1953125 24.2890625 C-9.77785001 21.0133764 -11.05892024 19.33552547 -10.87109375 15.078125 C-9.863993 11.51940128 -8.44586089 9.56003852 -6.0625 6.75 C-5.35222656 5.89921875 -4.64195313 5.0484375 -3.91015625 4.171875 C-2.65143771 2.740694 -1.34771129 1.34771129 0 0 Z " fill="#F4A886" transform="translate(22,8)"/>
</svg>
