<?xml version="1.0" encoding="UTF-8"?>
<svg version="1.1" xmlns="http://www.w3.org/2000/svg" width="37" height="45">
<path d="M0 0 C12.21 0 24.42 0 37 0 C37 14.85 37 29.7 37 45 C24.79 45 12.58 45 0 45 C0 30.15 0 15.3 0 0 Z " fill="#FEFEFE" transform="translate(0,0)"/>
<path d="M0 0 C6.20022451 1.04696774 9.71389904 6.42452633 13.5 11.0625 C15 14 15 14 15.1875 16.8125 C12.78286726 23.2670405 7.86982764 28.24842425 3 33 C2.01 32.67 1.02 32.34 0 32 C1.9780732 27.47868983 5.20559746 24.12807017 8.41796875 20.4375 C10.20622241 18.19590795 10.20622241 18.19590795 9.91796875 15.94140625 C8.86295183 13.7101577 7.63695198 11.8894977 6.125 9.9375 C5.61195312 9.26589844 5.09890625 8.59429687 4.5703125 7.90234375 C3.05832075 5.98225027 3.05832075 5.98225027 1.3046875 4.44140625 C0 3 0 3 0 0 Z " fill="#F3A784" transform="translate(14,6)"/>
</svg>
