<svg width="55" height="55" viewBox="0 0 55 55" fill="none" xmlns="http://www.w3.org/2000/svg">
<rect x="0.25" y="54.75" width="54.5" height="54.5" rx="27.25" transform="rotate(-90 0.25 54.75)" fill="white" stroke="#FFB18E" stroke-width="0.5"/>
<path d="M37.7014 19.2703C34.2152 17.1685 31.1725 18.0155 29.3447 19.3647C28.5951 19.9179 28.2205 20.1945 28 20.1945C27.7795 20.1945 27.4049 19.9179 26.6553 19.3647C24.8275 18.0155 21.7848 17.1685 18.2987 19.2703C13.7235 22.0288 12.6882 31.129 23.2414 38.8066C25.2514 40.2689 26.2564 41 28 41C29.7436 41 30.7486 40.2689 32.7586 38.8066C43.3118 31.129 42.2765 22.0288 37.7014 19.2703Z" stroke="#F3A17C" stroke-width="1.5" stroke-linecap="round"/>
</svg>
