<svg width="70" height="69" viewBox="0 0 70 69" fill="none" xmlns="http://www.w3.org/2000/svg">
<rect y="69" width="69" height="70" rx="34.5" transform="rotate(-90 0 69)" fill="white"/>
<path d="M34.0827 28H50.0254C51.1708 28 51.7436 28 52.1628 28.1891C54.0176 29.0254 53.1884 31.1327 52.8764 32.647C52.8203 32.9191 52.6379 33.1506 52.3823 33.2747C51.3221 33.7892 50.5794 34.7652 50.3845 35.9001L49.2981 42.2271C48.8201 45.0109 48.6568 48.9893 46.2714 50.9504C44.5213 52.375 41.9998 52.375 36.9564 52.375H33.0423C27.999 52.375 25.4774 52.375 23.7273 50.9504C21.342 48.9891 21.1786 45.0109 20.7006 42.2271L19.6141 35.9001C19.4193 34.7652 18.6767 33.7892 17.6164 33.2747C17.3608 33.1506 17.1785 32.9191 17.1224 32.647C16.8104 31.1327 15.9811 29.0254 17.8359 28.1891C18.2552 28 18.8279 28 19.9733 28H26.7494" stroke="#F3A17C" stroke-width="1.5" stroke-linecap="round"/>
<path d="M38.6673 35.5H31.334" stroke="#F3A17C" stroke-width="1.5" stroke-linecap="round" stroke-linejoin="round"/>
<path d="M24.916 33.625L31.3327 18.625M40.4993 18.625L45.0827 28" stroke="#F3A17C" stroke-width="1.5" stroke-linecap="round"/>
</svg>
