<svg width="54" height="54" viewBox="0 0 54 54" fill="none" xmlns="http://www.w3.org/2000/svg">
<path d="M28.3775 31.0202C24.579 35.1017 10.0258 42.0267 14.5696 49.5687C16.2018 52.2777 20.9006 52 24.153 52H29.847C38.3842 52 42.6527 52 45.5725 49.5715C48.4922 47.143 49.1177 43.0722 50.369 34.931L51.1215 30.0337C52.004 24.2905 52.4452 21.4191 51.3595 18.8734C50.2737 16.3278 47.865 14.5861 43.0472 11.1026L39.4475 8.5C33.4542 4.16667 30.4577 2 27 2C23.5422 2 20.5457 4.16667 14.5525 8.5L10.9528 11.1026C6.13507 14.5861 3.72618 16.3278 2.64043 18.8734C1.55465 21.4191 1.99592 24.2905 2.87847 30.0337L3.63108 34.931C4.52108 40.7225 5.09452 44.4542 6.40255 47M27.4502 42.3147C33.371 41.1685 37.427 37.5245 39.3347 31.6375C41.4957 24.9702 38.5667 16.7094 31.188 14.7984C31.188 14.7984 33.463 17.5105 31.9932 19.8896C29.16 24.9887 21.0613 23.2935 17.8134 29.7912C15.9008 33.4187 16.4806 37.7125 19.2346 40.3907C20.965 42.0735 24.607 42.8652 27.4502 42.3147Z" stroke="white" stroke-width="3.5" stroke-linecap="round" stroke-linejoin="round"/>
</svg>
