<svg width="41" height="41" viewBox="0 0 41 41" fill="none" xmlns="http://www.w3.org/2000/svg">
<path d="M3.41602 10.2503C3.41602 7.02906 3.41602 5.41842 4.41674 4.41772C5.41745 3.41699 7.02808 3.41699 10.2493 3.41699C13.4706 3.41699 15.0813 3.41699 16.082 4.41772C17.0827 5.41842 17.0827 7.02906 17.0827 10.2503V13.667C17.0827 16.8883 17.0827 18.4988 16.082 19.4996C15.0813 20.5003 13.4706 20.5003 10.2493 20.5003C7.02808 20.5003 5.41745 20.5003 4.41674 19.4996C3.41602 18.4988 3.41602 16.8883 3.41602 13.667V10.2503Z" stroke="#F18453" stroke-width="1.5"/>
<path d="M3.41602 32.458C3.41602 30.866 3.41602 30.0701 3.67609 29.4421C4.02287 28.605 4.68801 27.9398 5.52518 27.593C6.15307 27.333 6.94905 27.333 8.54102 27.333H11.9577C13.5496 27.333 14.3456 27.333 14.9735 27.593C15.8107 27.9398 16.4758 28.605 16.8226 29.4421C17.0827 30.0701 17.0827 30.866 17.0827 32.458C17.0827 34.05 17.0827 34.8459 16.8226 35.4739C16.4758 36.311 15.8107 36.9762 14.9735 37.323C14.3456 37.583 13.5496 37.583 11.9577 37.583H8.54102C6.94905 37.583 6.15307 37.583 5.52518 37.323C4.68801 36.9762 4.02287 36.311 3.67609 35.4739C3.41602 34.8459 3.41602 34.05 3.41602 32.458Z" stroke="#F18453" stroke-width="1.5"/>
<path d="M23.916 27.3333C23.916 24.1121 23.916 22.5015 24.9168 21.5007C25.9175 20.5 27.5281 20.5 30.7493 20.5C33.9706 20.5 35.5812 20.5 36.5819 21.5007C37.5827 22.5015 37.5827 24.1121 37.5827 27.3333V30.75C37.5827 33.9712 37.5827 35.5819 36.5819 36.5826C35.5812 37.5833 33.9706 37.5833 30.7493 37.5833C27.5281 37.5833 25.9175 37.5833 24.9168 36.5826C23.916 35.5819 23.916 33.9712 23.916 30.75V27.3333Z" stroke="#F18453" stroke-width="1.5"/>
<path d="M23.916 8.54199C23.916 6.95003 23.916 6.15405 24.176 5.52615C24.5228 4.68898 25.188 4.02384 26.0251 3.67707C26.6531 3.41699 27.449 3.41699 29.041 3.41699H32.4577C34.0497 3.41699 34.8456 3.41699 35.4736 3.67707C36.3107 4.02384 36.9759 4.68898 37.3227 5.52615C37.5827 6.15405 37.5827 6.95003 37.5827 8.54199C37.5827 10.134 37.5827 10.9299 37.3227 11.5578C36.9759 12.395 36.3107 13.0601 35.4736 13.4069C34.8456 13.667 34.0497 13.667 32.4577 13.667H29.041C27.449 13.667 26.6531 13.667 26.0251 13.4069C25.188 13.0601 24.5228 12.395 24.176 11.5578C23.916 10.9299 23.916 10.134 23.916 8.54199Z" stroke="#F18453" stroke-width="1.5"/>
</svg>
