<?xml version="1.0" encoding="UTF-8"?>
<svg version="1.1" xmlns="http://www.w3.org/2000/svg" width="118" height="88">
<path d="M0 0 C38.94 0 77.88 0 118 0 C118 29.04 118 58.08 118 88 C79.06 88 40.12 88 0 88 C0 58.96 0 29.92 0 0 Z " fill="#FEFEFE" transform="translate(0,0)"/>
<path d="M0 0 C3.24787144 0.30291029 4.66202505 0.64785844 6.95703125 3.0390625 C7.87548828 4.31910156 7.87548828 4.31910156 8.8125 5.625 C17.13401065 16.5188957 29.1432273 25.77583052 43 28 C59.91575506 29.68024799 71.75563179 23.37594511 85.125 13.75 C89.52771054 9.53871166 93.23344079 4.77934513 97 0 C98.32 0.33 99.64 0.66 101 1 C101.77734375 2.671875 101.77734375 2.671875 102 5 C100.12890625 7.578125 100.12890625 7.578125 97.5625 10.25 C96.71816406 11.14203125 95.87382813 12.0340625 95.00390625 12.953125 C94.01197266 13.96632813 94.01197266 13.96632813 93 15 C94.7568107 19.06652629 97.36290539 21.33202078 100.63671875 24.21875 C102 26 102 26 101.70703125 28.21875 C101.35705078 29.10046875 101.35705078 29.10046875 101 30 C98.75390625 30.25390625 98.75390625 30.25390625 96 30 C93.90234375 28.21484375 93.90234375 28.21484375 91.9375 25.9375 C90.07032052 23.65228353 90.07032052 23.65228353 88 22 C84.59913937 22.12170078 82.22692773 24.02771671 79.5 25.9375 C76.7372813 27.86288786 74.04946407 29.56536576 71 31 C71.94727464 33.43584906 72.85103113 35.74910506 74.1875 38 C75.26111483 40.64274419 74.74938546 42.30221234 74 45 C71.67578125 44.78515625 71.67578125 44.78515625 69 44 C67.41796875 41.93359375 67.41796875 41.93359375 66.1875 39.4375 C65.76855469 38.61121094 65.34960938 37.78492188 64.91796875 36.93359375 C64.46357422 35.97646484 64.46357422 35.97646484 64 35 C59.64725867 34.70823122 55.29703308 34.53157635 50.9375 34.375 C49.70837891 34.29121094 48.47925781 34.20742187 47.21289062 34.12109375 C40.26732213 33.80837424 40.26732213 33.80837424 34.56689453 37.27050781 C32.80997931 39.7803867 31.32645804 42.24134049 30 45 C28.68 44.67 27.36 44.34 26 44 C25.16138021 38.63283335 28.07929595 35.20372761 31 31 C30.13117187 30.75507812 29.26234375 30.51015625 28.3671875 30.2578125 C24.74868597 28.90612167 22.1983587 27.19875901 19.125 24.875 C18.15820312 24.15054688 17.19140625 23.42609375 16.1953125 22.6796875 C15.47085937 22.12539063 14.74640625 21.57109375 14 21 C12.8944811 21.93590504 11.79064547 22.87379858 10.6875 23.8125 C10.07261719 24.33457031 9.45773438 24.85664062 8.82421875 25.39453125 C6.98182501 26.95608169 6.98182501 26.95608169 5.4375 28.71875 C4.7259375 29.35296875 4.7259375 29.35296875 4 30 C1.3125 29.6875 1.3125 29.6875 -1 29 C-0.3055165 24.46601487 2.24399284 22.73881242 5.6015625 19.87890625 C7.25599685 18.05954446 7.25599685 18.05954446 6.9375 15.52734375 C5.57326866 11.84960343 3.15871659 9.76822812 0.3984375 7.0625 C-1 5 -1 5 -0.7109375 2.25 C-0.47632813 1.5075 -0.24171875 0.765 0 0 Z " fill="#F3A481" transform="translate(9,32)"/>
</svg>
