<?xml version="1.0" encoding="UTF-8"?>
<svg version="1.1" xmlns="http://www.w3.org/2000/svg" width="126" height="106">
<path d="M0 0 C41.58 0 83.16 0 126 0 C126 34.98 126 69.96 126 106 C84.42 106 42.84 106 0 106 C0 71.02 0 36.04 0 0 Z " fill="#FEFEFD" transform="translate(0,0)"/>
<path d="M0 0 C1.67542976 0.28604898 3.34385343 0.61781233 5 1 C4.38812508 6.16048231 2.76757078 10.41587506 0.7265625 15.13671875 C0.23994644 16.27860405 0.23994644 16.27860405 -0.25650024 17.44355774 C-0.94082902 19.04426443 -1.62850431 20.64354412 -2.31933594 22.24145508 C-3.37433386 24.68595651 -4.41433176 27.13646623 -5.453125 29.58789062 C-6.12150362 31.14621631 -6.79074504 32.70417228 -7.4609375 34.26171875 C-7.77042328 34.99299484 -8.07990906 35.72427094 -8.39877319 36.47770691 C-9.89367807 39.90774199 -11.25382197 42.47015708 -14 45 C-15.32 44.34 -16.64 43.68 -18 43 C-17.25465483 38.22979089 -15.78495892 34.75989046 -14 30 C-20.27 30 -26.54 30 -33 30 C-32.93234027 37.64416526 -32.93234027 37.64416526 -29.5625 40.1875 C-28.716875 40.785625 -27.87125 41.38375 -27 42 C-25.25215959 45.56382878 -24.58295519 48.94270959 -24.0703125 52.859375 C-23.91433594 53.97570313 -23.75835938 55.09203125 -23.59765625 56.2421875 C-23.28475832 58.56435564 -22.97738523 60.88727551 -22.67578125 63.2109375 C-21.07208837 74.56279757 -21.07208837 74.56279757 -15 84 C-11.68252578 85.65873711 -8.59290635 86.12496031 -4.90917969 86.16113281 C-4.11445251 86.17074036 -3.31972534 86.1803479 -2.50091553 86.19024658 C-1.64983215 86.19449646 -0.79874878 86.19874634 0.078125 86.203125 C0.96352966 86.20882507 1.84893433 86.21452515 2.76116943 86.22039795 C4.63389903 86.22983391 6.50664513 86.23637635 8.37939453 86.24023438 C11.22588565 86.24991796 14.07164763 86.28094543 16.91796875 86.3125 C18.74218324 86.31903294 20.56640286 86.32428227 22.390625 86.328125 C23.65510468 86.3466452 23.65510468 86.3466452 24.94512939 86.36553955 C30.61399782 86.34446674 34.88572481 85.52898304 40 83 C45.26942345 76.23313879 45.36397459 65.31008605 46.421875 57.1015625 C47.33899551 50.61846926 48.55001956 45.60621821 52 40 C52.99 39.34 53.98 38.68 55 38 C55.33 35.69 55.66 33.38 56 31 C31.745 30.505 31.745 30.505 7 30 C6.505 28.02 6.505 28.02 6 26 C8.60088622 23.39911378 9.82137113 23.70037775 13.4453125 23.5859375 C14.52167969 23.54726563 15.59804688 23.50859375 16.70703125 23.46875 C17.83496094 23.4378125 18.96289062 23.406875 20.125 23.375 C21.26066406 23.33632813 22.39632812 23.29765625 23.56640625 23.2578125 C26.37743956 23.16332399 29.18846233 23.07776459 32 23 C31.72212646 22.48091064 31.44425293 21.96182129 31.15795898 21.42700195 C29.90304729 19.06300041 28.67020191 16.68815287 27.4375 14.3125 C26.99986328 13.49587891 26.56222656 12.67925781 26.11132812 11.83789062 C25.70205078 11.04189453 25.29277344 10.24589844 24.87109375 9.42578125 C24.48880615 8.69786377 24.10651855 7.96994629 23.71264648 7.2199707 C22.83075065 4.47277002 23.23829699 2.74508483 24 0 C26.3190918 0.19311523 26.3190918 0.19311523 29 1 C30.57739258 3.13305664 30.57739258 3.13305664 31.89453125 5.91015625 C32.61479492 7.39418945 32.61479492 7.39418945 33.34960938 8.90820312 C34.07374023 10.46958008 34.07374023 10.46958008 34.8125 12.0625 C35.56563477 13.62967773 35.56563477 13.62967773 36.33398438 15.22851562 C37.57249489 17.81169469 38.79348327 20.40176258 40 23 C41.18078125 23.04898437 42.3615625 23.09796875 43.578125 23.1484375 C45.13543937 23.22348879 46.69272991 23.29903561 48.25 23.375 C49.02730469 23.4059375 49.80460937 23.436875 50.60546875 23.46875 C58.04601297 23.85031637 58.04601297 23.85031637 61 26 C63.50552308 29.75828462 63.37195709 31.53651494 63 36 C61.76748185 39.63592853 60.84982334 42.23560972 57.97460938 44.82177734 C55.46884417 47.58592635 55.20567046 49.49673525 54.65625 53.1640625 C54.46160156 54.36933594 54.26695313 55.57460938 54.06640625 56.81640625 C53.87949219 58.07324219 53.69257812 59.33007812 53.5 60.625 C50.07289448 83.24389644 50.07289448 83.24389644 41.9765625 89.84375 C36.11368159 93.27341947 30.4077292 93.30723114 23.81640625 93.30078125 C22.84267563 93.30506638 21.86894501 93.3093515 20.8657074 93.31376648 C18.81241633 93.31949317 16.75910499 93.32002232 14.70581055 93.31567383 C11.5763059 93.31251394 8.44774733 93.33599393 5.31835938 93.36132812 C3.31770952 93.3636014 1.31705714 93.36430448 -0.68359375 93.36328125 C-1.61296249 93.372491 -2.54233124 93.38170074 -3.49986267 93.39118958 C-10.98815104 93.3382487 -16.89828747 91.78588467 -22.66503906 86.61181641 C-28.29158728 79.81838713 -28.99800096 70.08415387 -30.0625 61.6875 C-30.35551652 59.39838844 -30.65853695 57.11053008 -30.97265625 54.82421875 C-31.09906494 53.82479248 -31.22547363 52.82536621 -31.35571289 51.7956543 C-32.29195815 47.73315167 -33.85515265 44.90914348 -37.125 42.3125 C-40.0925204 38.65255818 -40.33672708 34.62438522 -40 30 C-38.23246008 27.01346703 -37.08095449 25.54047724 -34 24 C-32.18658158 23.91528636 -30.37005839 23.89278917 -28.5546875 23.90234375 C-27.47832031 23.90556641 -26.40195312 23.90878906 -25.29296875 23.91210938 C-24.16503906 23.92048828 -23.03710938 23.92886719 -21.875 23.9375 C-20.73933594 23.94201172 -19.60367187 23.94652344 -18.43359375 23.95117188 C-15.62234362 23.96298385 -12.8111977 23.97945493 -10 24 C-9.81969238 23.43732422 -9.63938477 22.87464844 -9.45361328 22.29492188 C-7.80818321 17.24738236 -5.98286096 12.37244242 -3.875 7.5 C-3.35679688 6.2934375 -2.83859375 5.086875 -2.3046875 3.84375 C-1 1 -1 1 0 0 Z " fill="#F3A480" transform="translate(46,3)"/>
<path d="M0 0 C0.93199219 -0.00128906 1.86398438 -0.00257812 2.82421875 -0.00390625 C4.28794922 0.00189453 4.28794922 0.00189453 5.78125 0.0078125 C6.75707031 0.00394531 7.73289062 0.00007813 8.73828125 -0.00390625 C10.13626953 -0.00197266 10.13626953 -0.00197266 11.5625 0 C12.41908203 0.00112793 13.27566406 0.00225586 14.15820312 0.00341797 C16.28125 0.1328125 16.28125 0.1328125 18.28125 1.1328125 C17.40625 6.0078125 17.40625 6.0078125 16.28125 7.1328125 C12.80916193 7.38380174 9.3238438 7.31803346 5.84375 7.3203125 C4.86341797 7.33255859 3.88308594 7.34480469 2.87304688 7.35742188 C1.93654297 7.35935547 1.00003906 7.36128906 0.03515625 7.36328125 C-0.82779053 7.36739014 -1.6907373 7.37149902 -2.57983398 7.37573242 C-4.71875 7.1328125 -4.71875 7.1328125 -6.71875 5.1328125 C-6.71875 3.8128125 -6.71875 2.4928125 -6.71875 1.1328125 C-4.28983818 -0.08164341 -2.71155557 0.00357052 0 0 Z " fill="#F4AA89" transform="translate(51.71875,45.8671875)"/>
</svg>
