<svg width="50" height="50" viewBox="0 0 50 50" fill="none" xmlns="http://www.w3.org/2000/svg">
<path d="M45.8327 24.9994C45.8327 36.5052 36.5052 45.8327 24.9994 45.8327C13.4934 45.8327 4.16602 36.5052 4.16602 24.9994M17.7077 5.4777C19.9771 4.62966 22.4341 4.16602 24.9994 4.16602C27.5646 4.16602 30.0216 4.62966 32.291 5.4777" stroke="white" stroke-width="1.5" stroke-linecap="round" stroke-linejoin="round"/>
<path d="M15.6638 11.3186L16.7636 13.5366C16.9136 13.8453 17.3136 14.1415 17.651 14.1982L19.6446 14.5321C20.9194 14.7464 21.2194 15.6789 20.3008 16.5988L18.7509 18.1615C18.4884 18.4261 18.3447 18.9365 18.4259 19.3019L18.8697 21.2362C19.2196 22.7675 18.4135 23.3598 17.0699 22.5596L15.2013 21.4444C14.8638 21.2427 14.3077 21.2427 13.9639 21.4444L12.0954 22.5596C10.758 23.3598 9.94563 22.7612 10.2956 21.2362L10.7393 19.3019C10.8205 18.9365 10.6768 18.4261 10.4143 18.1615L8.86451 16.5988C7.95211 15.6789 8.24582 14.7464 9.5207 14.5321L11.5142 14.1982C11.8454 14.1415 12.2454 13.8453 12.3954 13.5366L13.4953 11.3186C14.0952 10.1151 15.0701 10.1151 15.6638 11.3186Z" stroke="white" stroke-width="1.5" stroke-linecap="round" stroke-linejoin="round"/>
<path d="M36.4958 11.3186L37.5956 13.5366C37.7456 13.8453 38.1456 14.1415 38.4831 14.1982L40.4766 14.5321C41.7514 14.7464 42.0514 15.6789 41.1327 16.5988L39.5829 18.1615C39.3204 18.4261 39.1766 18.9365 39.2579 19.3019L39.7016 21.2362C40.0516 22.7675 39.2454 23.3598 37.9018 22.5596L36.0333 21.4444C35.6958 21.2427 35.1397 21.2427 34.796 21.4444L32.9274 22.5596C31.5902 23.3598 30.7777 22.7612 31.1277 21.2362L31.5714 19.3019C31.6524 18.9365 31.5089 18.4261 31.2464 18.1615L29.6966 16.5988C28.7841 15.6789 29.0779 14.7464 30.3527 14.5321L32.3462 14.1982C32.6774 14.1415 33.0774 13.8453 33.2274 13.5366L34.3272 11.3186C34.9272 10.1151 35.902 10.1151 36.4958 11.3186Z" stroke="white" stroke-width="1.5" stroke-linecap="round" stroke-linejoin="round"/>
<path d="M16.666 31.25C18.5663 33.78 21.5916 35.4167 24.9993 35.4167C28.4071 35.4167 31.4325 33.78 33.3327 31.25" stroke="white" stroke-width="1.5" stroke-linecap="round" stroke-linejoin="round"/>
</svg>
